<?xml version="1.0" encoding="UTF-8"?>
<svg width="50px" height="50px" viewBox="0 0 50 50" version="1.1" xmlns="http://www.w3.org/2000/svg" xmlns:xlink="http://www.w3.org/1999/xlink">
    <title>Combined Shape</title>
    <g id="Page-1" stroke="none" stroke-width="1" fill="none" fill-rule="evenodd">
        <g id="Desktop-HD" transform="translate(-164.000000, -338.000000)" fill="#45303F">
            <path d="M167.786797,338.958369 L213.041631,384.213203 C213.822679,384.994252 213.822679,386.260582 213.041631,387.041631 C212.260582,387.822679 210.994252,387.822679 210.213203,387.041631 L164.958369,341.786797 C164.177321,341.005748 164.177321,339.739418 164.958369,338.958369 C165.739418,338.177321 167.005748,338.177321 167.786797,338.958369 Z M173.999942,355.07 L177.999942,359.07 L178,378 C178,379.054362 178.815878,379.918165 179.850738,379.994514 L180,380 L198,380 C198.274418,380 198.535927,379.944732 198.774004,379.844721 L203.623959,384.695443 C202.985869,386.056992 201.60306,387 200,387 L178,387 C175.790861,387 174,385.209139 174,383 L173.999942,355.07 Z M200,339 C202.209139,339 204,340.790861 204,343 L203.999942,370.929 L199.999942,366.929 L200,348 C200,346.895431 199.104569,346 198,346 L180,346 C179.725582,346 179.464073,346.055268 179.225996,346.155279 L174.376041,341.304557 C175.014131,339.943008 176.39694,339 178,339 L200,339 Z" id="Combined-Shape"></path>
        </g>
    </g>
</svg>