<?xml version="1.0" encoding="UTF-8"?>
<svg width="16px" height="16px" viewBox="0 0 16 16" version="1.1" xmlns="http://www.w3.org/2000/svg" xmlns:xlink="http://www.w3.org/1999/xlink">
    <title>Artboard</title>
    <g id="Artboard" stroke="none" stroke-width="1" fill="none" fill-rule="evenodd">
        <g id="icon/nav" transform="translate(0.000000, 2.000000)" fill="#000000">
            <path d="M15,10 C15.5522847,10 16,10.4477153 16,11 C16,11.5522847 15.5522847,12 15,12 L1,12 C0.44771525,12 6.76353751e-17,11.5522847 0,11 C-6.76353751e-17,10.4477153 0.44771525,10 1,10 L15,10 Z M9.35294118,5 C9.90522593,5 10.3529412,5.44771525 10.3529412,6 C10.3529412,6.55228475 9.90522593,7 9.35294118,7 L1,7 C0.44771525,7 6.76353751e-17,6.55228475 0,6 C-6.76353751e-17,5.44771525 0.44771525,5 1,5 L9.35294118,5 Z M15,0 C15.5522847,-1.01453063e-16 16,0.44771525 16,1 C16,1.55228475 15.5522847,2 15,2 L1,2 C0.44771525,2 6.76353751e-17,1.55228475 0,1 C-6.76353751e-17,0.44771525 0.44771525,1.01453063e-16 1,0 L15,0 Z" id="Combined-Shape"></path>
        </g>
    </g>
</svg>