<?xml version="1.0" encoding="UTF-8"?>
<svg width="16px" height="16px" viewBox="0 0 16 16" version="1.1" xmlns="http://www.w3.org/2000/svg" xmlns:xlink="http://www.w3.org/1999/xlink">
    <title>Artboard Copy 2</title>
    <g id="Artboard-Copy-2" stroke="none" stroke-width="1" fill="none" fill-rule="evenodd">
        <g id="icon/nav" transform="translate(1.500000, 1.000000)" fill="#000000">
            <path d="M1.90380592,0.98959236 L6.49969914,5.58469914 L11.0961941,0.98959236 C11.4867184,0.599068068 12.1198833,0.599068068 12.5104076,0.98959236 C12.9009319,1.38011665 12.9009319,2.01328163 12.5104076,2.40380592 L7.91369914,6.99969914 L12.5104076,11.5961941 C12.9009319,11.9867184 12.9009319,12.6198833 12.5104076,13.0104076 C12.1198833,13.4009319 11.4867184,13.4009319 11.0961941,13.0104076 L6.49969914,8.41369914 L1.90380592,13.0104076 C1.51328163,13.4009319 0.880116652,13.4009319 0.48959236,13.0104076 C0.0990680682,12.6198833 0.0990680682,11.9867184 0.48959236,11.5961941 L5.08469914,6.99969914 L0.48959236,2.40380592 C0.0990680682,2.01328163 0.0990680682,1.38011665 0.48959236,0.98959236 C0.880116652,0.599068068 1.51328163,0.599068068 1.90380592,0.98959236 Z" id="Combined-Shape"></path>
        </g>
    </g>
</svg>