<?xml version="1.0" encoding="UTF-8"?>
<svg width="16px" height="16px" viewBox="0 0 16 16" version="1.1" xmlns="http://www.w3.org/2000/svg" xmlns:xlink="http://www.w3.org/1999/xlink">
    <title>Group 4</title>
    <g id="行動" stroke="none" stroke-width="1" fill="none" fill-rule="evenodd">
        <g id="iPhone-11-Pro" transform="translate(-82.000000, -648.000000)">
            <g id="Group-7" transform="translate(12.000000, 517.000000)">
                <g id="Group-5" transform="translate(70.000000, 128.000000)">
                    <g id="Group-4" transform="translate(0.000000, 3.000000)">
                        <circle id="Oval" fill="#000000" cx="8" cy="8" r="8"></circle>
                        <path d="M6.49306845,11.2525694 C6.48144606,11.2416318 6.47015825,11.2303439 6.4592206,11.2187216 L4.16119182,8.77682524 C3.83841487,8.43384091 3.83841487,7.8988614 4.16119182,7.55587708 C4.45978973,7.23858551 4.9590668,7.22343132 5.27635836,7.52202923 L5.31020621,7.55587708 L5.31020621,7.55587708 L7.06210911,9.41749248 L10.5362401,5.72774038 C10.5417089,5.72192918 10.5472653,5.71620163 10.5529072,5.71055967 L10.5700879,5.69389253 C10.8873795,5.39529462 11.3866566,5.41044881 11.6852545,5.72774038 C12.0080314,6.0707247 12.0080314,6.60570421 11.6852545,6.94868854 L11.6852545,6.94868854 L7.66370411,11.2220071 L7.66370411,11.2220071 L7.62985626,11.2558549 C7.45678813,11.4187265 7.22957556,11.4882504 7.01031889,11.4663114 C6.81911564,11.4591972 6.63729189,11.3882957 6.49306845,11.2525694 Z" id="Combined-Shape" fill="#EDEDED"></path>
                    </g>
                </g>
            </g>
        </g>
    </g>
</svg>